<?xml version="1.0" encoding="utf-8"?>
<!-- Generator: Adobe Illustrator 23.0.0, SVG Export Plug-In . SVG Version: 6.00 Build 0)  -->
<svg version="1.1" id="Capa_1" xmlns="http://www.w3.org/2000/svg" xmlns:xlink="http://www.w3.org/1999/xlink" x="0px" y="0px"
	 viewBox="0 0 512 512" style="enable-background:new 0 0 512 512;" xml:space="preserve">
<style type="text/css">
	.st0{fill:#FFFFFF;}
</style>
<g id="Grupo_655_30_" transform="translate(0 0)">
	<g id="Trazado_954_30_">
		<path class="st0" d="M331.7,44.6c16.8,16.8,16.8,44.2,0,61l0,0l-122.2,122c-16.8,16.8-16.8,44.2,0,61s44.2,16.8,61,0l0,0
			L240,319.1c-33.6,33.6-88.4,33.6-122,0s-33.6-88.4,0-122L270.5,44.4C287.5,27.8,314.7,27.8,331.7,44.6z"/>
	</g>
	<g id="Trazado_955_30_">
		<path class="st0" d="M406.6,241.3c16.8,16.8,16.8,44.2,0,61l0,0l-61,61c-16.8,16.8-16.8,44.2,0,61c16.8,16.8,44.2,16.8,61,0
			l-30.5,30.5c-33.6,33.6-88.4,33.6-122,0s-33.6-88.4,0-122l91.5-91.5C362.4,224.5,389.8,224.5,406.6,241.3z"/>
	</g>
</g>
</svg>
