<?xml version="1.0" encoding="utf-8"?>
<!-- Generator: Adobe Illustrator 23.0.0, SVG Export Plug-In . SVG Version: 6.00 Build 0)  -->
<svg version="1.1" id="Capa_1" xmlns="http://www.w3.org/2000/svg" xmlns:xlink="http://www.w3.org/1999/xlink" x="0px" y="0px"
	 viewBox="0 0 512 512" style="enable-background:new 0 0 512 512;" xml:space="preserve">
<style type="text/css">
	.st0{fill:#FFFFFF;}
	.st1{fill:#7120EA;}
</style>
<g id="Grupo_655_30_" transform="translate(0 0)">
	<g id="Trazado_954_30_">
		<path class="st0" d="M179,340.3c-22,0-42.7-8.5-58.2-24c-32.1-32.1-32.1-84.3,0-116.3L273.3,47.3C280.8,40,290.6,36,301,36
			c10.5,0,20.4,4.1,27.9,11.5c15.2,15.2,15.2,40.1,0,55.3l-122.2,122c-18.4,18.4-18.4,48.3,0,66.7c8.9,8.9,20.7,13.8,33.3,13.8
			c3.1,0,6.1-0.3,9.1-0.9l-11.9,11.9C221.7,331.8,201,340.3,179,340.3z"/>
		<path class="st1" d="M301,32v8c9.4,0,18.3,3.7,25,10.3c6.6,6.6,10.3,15.4,10.3,24.8c0,9.4-3.6,18.2-10.3,24.8L203.9,222
			c-19.9,19.9-19.9,52.4,0,72.3c9.3,9.3,21.6,14.6,34.7,14.9l-4.2,4.2c-14.8,14.8-34.4,22.9-55.3,22.9c-20.9,0-40.6-8.1-55.3-22.9
			c-30.5-30.5-30.5-80.2,0-110.7L276.1,50.1C282.8,43.6,291.7,40,301,40L301,32 M301,32c-11,0-22,4.2-30.5,12.4L118,197.1
			c-33.6,33.6-33.6,88.4,0,122c16.8,16.8,38.9,25.2,61,25.2s44.2-8.4,61-25.2l30.5-30.5c-8.4,8.4-19.5,12.6-30.5,12.6
			s-22.1-4.2-30.5-12.6c-16.8-16.8-16.8-44.2,0-61l122.2-122c16.8-16.8,16.8-44.2,0-61C323.2,36.2,312.1,32,301,32L301,32z"/>
	</g>
	<g id="Trazado_955_30_">
		<path class="st0" d="M315.1,476c-22,0-42.7-8.5-58.2-24c-15.5-15.5-24-36.2-24-58.2s8.5-42.7,24-58.2l91.5-91.5
			c7.4-7.4,17.2-11.4,27.7-11.4s20.3,4.1,27.7,11.4c15.3,15.3,15.3,40.1,0,55.3l-61,61c-18.4,18.4-18.4,48.3,0,66.7
			c8.9,8.9,20.7,13.8,33.3,13.8c3.1,0,6.1-0.3,9.1-0.9L373.3,452C357.7,467.5,337.1,476,315.1,476z"/>
		<path class="st1" d="M376.1,236.7L376.1,236.7c9.4,0,18.2,3.6,24.8,10.3c13.7,13.7,13.7,36,0,49.7l-61,61
			c-9.6,9.6-15,22.5-15,36.2c0,13.7,5.3,26.5,15,36.2c9.3,9.3,21.6,14.6,34.7,14.9l-4.2,4.2C355.7,463.9,336,472,315.1,472
			c-20.9,0-40.6-8.1-55.3-22.9c-30.5-30.5-30.5-80.2,0-110.7l91.5-91.5C357.9,240.3,366.7,236.7,376.1,236.7 M376.1,228.7
			c-11,0-22.1,4.2-30.5,12.6l-91.5,91.5c-33.6,33.6-33.6,88.4,0,122c16.8,16.8,38.9,25.2,61,25.2s44.2-8.4,61-25.2l30.5-30.5
			c-8.4,8.4-19.5,12.6-30.5,12.6s-22.1-4.2-30.5-12.6c-16.8-16.8-16.8-44.2,0-61l61-61c16.8-16.8,16.8-44.2,0-61
			C398.2,232.9,387.1,228.7,376.1,228.7L376.1,228.7z"/>
	</g>
</g>
</svg>
