<?xml version="1.0" encoding="utf-8"?>
<!-- Generator: Adobe Illustrator 23.0.0, SVG Export Plug-In . SVG Version: 6.00 Build 0)  -->
<svg version="1.1" id="Capa_1" xmlns="http://www.w3.org/2000/svg" xmlns:xlink="http://www.w3.org/1999/xlink" x="0px" y="0px"
	 viewBox="0 0 512 512" style="enable-background:new 0 0 512 512;" xml:space="preserve">
<style type="text/css">
	.st0{fill:#7120EA;}
</style>
<g id="Grupo_707" transform="translate(0 0)">
	<g id="Grupo_655" transform="translate(10.965 0)">
		<path id="Trazado_954" class="st0" d="M403.3,94.5c12.6,12.6,12.6,33.1,0,45.7c0,0,0,0,0,0l-91.5,91.5
			c-12.6,12.6-12.6,33.1,0,45.7c12.6,12.6,33.1,12.6,45.7,0l0,0l-22.9,22.9c-25.3,25.3-66.2,25.3-91.5,0
			c-25.3-25.3-25.3-66.2,0-91.5L357.6,94.5C370.3,81.9,390.7,81.9,403.3,94.5z"/>
		<path id="Trazado_955" class="st0" d="M459.6,241.8c12.6,12.6,12.6,33.1,0,45.7c0,0,0,0,0,0l-45.7,45.7
			c-12.6,12.6-12.6,33.1,0,45.7c12.6,12.6,33.1,12.6,45.7,0l-22.9,22.9c-25.3,25.3-66.2,25.3-91.5,0c-25.3-25.3-25.3-66.2,0-91.5
			l68.6-68.6C426.5,229.2,446.9,229.2,459.6,241.8z"/>
	</g>
	<path id="ic_arrow_upward_24px" class="st0" d="M190.7,347.6l-14-14l-55.4,55.3V85.1h-19.8v303.9l-55.4-55.4L32,347.6l79.4,79.3
		L190.7,347.6z"/>
</g>
</svg>
