<?xml version="1.0" encoding="utf-8"?>
<!-- Generator: Adobe Illustrator 23.0.0, SVG Export Plug-In . SVG Version: 6.00 Build 0)  -->
<svg version="1.1" id="Capa_1" xmlns="http://www.w3.org/2000/svg" xmlns:xlink="http://www.w3.org/1999/xlink" x="0px" y="0px"
	 viewBox="0 0 512 512" style="enable-background:new 0 0 512 512;" xml:space="preserve">
<style type="text/css">
	.st0{fill:#FFFFFF;stroke:#7120EA;stroke-width:8;stroke-miterlimit:10;}
</style>
<path id="ic_lock_24px" class="st0" d="M384.2,180.8h-21.4v-42.7c-0.4-59-48.6-106.5-107.6-106.1c-58.4,0.4-105.7,47.7-106.1,106.1
	v42.7h-21.4c-23.6,0.1-42.7,19.2-42.7,42.7v213.7c0.1,23.6,19.2,42.7,42.7,42.7h256.4c23.6-0.1,42.7-19.2,42.7-42.7V223.6
	C426.9,200,407.8,180.9,384.2,180.8z M256,373.2c-23.6,0-42.7-19.1-42.7-42.7s19.1-42.7,42.7-42.7c23.6,0,42.7,19.1,42.7,42.7l0,0
	C298.7,354,279.6,373.1,256,373.2z M322.3,180.8H189.8v-42.7c0.3-36.6,30.3-66,66.8-65.6c36.1,0.3,65.3,29.5,65.6,65.6L322.3,180.8z
	"/>
</svg>
