<?xml version="1.0" encoding="utf-8"?>
<!-- Generator: Adobe Illustrator 23.0.0, SVG Export Plug-In . SVG Version: 6.00 Build 0)  -->
<svg version="1.1" id="Capa_1" xmlns="http://www.w3.org/2000/svg" xmlns:xlink="http://www.w3.org/1999/xlink" x="0px" y="0px"
	 viewBox="0 0 512 512" style="enable-background:new 0 0 512 512;" xml:space="preserve">
<style type="text/css">
	.st0{fill:#7120EA;}
</style>
<g id="Grupo_669" transform="translate(-317.946 -27.096)">
	<path id="Shape_3" class="st0" d="M369.1,150.1h409.8c12.3,1.9,20.7,13.4,18.8,25.6c-1.5,9.7-9.1,17.4-18.8,18.9H369.1
		c-12.3-1.9-20.7-13.4-18.8-25.6C351.7,159.2,359.3,151.6,369.1,150.1z"/>
	<path id="Shape_3_copy" class="st0" d="M505.4,262.9h275.2c12.3,3.1,19.8,15.5,16.7,27.8c-2.1,8.2-8.5,14.6-16.7,16.7H505.4
		c-12.3-3.1-19.8-15.5-16.7-27.8C490.8,271.3,497.2,264.9,505.4,262.9z"/>
	<path id="Shape_3_copy_2" class="st0" d="M369.1,371.6h409.8c12.3,1.9,20.7,13.4,18.8,25.6c-1.5,9.7-9.1,17.4-18.8,18.9H369.1
		c-12.3-1.9-20.7-13.4-18.8-25.6C351.7,380.7,359.3,373.1,369.1,371.6z"/>
</g>
</svg>
