<?xml version="1.0" encoding="utf-8"?>
<!-- Generator: Adobe Illustrator 23.0.0, SVG Export Plug-In . SVG Version: 6.00 Build 0)  -->
<svg version="1.1" id="Capa_1" xmlns="http://www.w3.org/2000/svg" xmlns:xlink="http://www.w3.org/1999/xlink" x="0px" y="0px"
	 viewBox="0 0 512 512" style="enable-background:new 0 0 512 512;" xml:space="preserve">
<style type="text/css">
	.st0{opacity:0.99;fill:#7120EA;enable-background:new    ;}
	.st1{fill:#7120EA;}
</style>
<g>
	<rect x="188.8" y="54.4" class="st0" width="22.4" height="22.4"/>
	<rect x="233.6" y="54.4" class="st0" width="22.4" height="22.4"/>
	<rect x="323.2" y="54.4" class="st0" width="22.4" height="22.4"/>
	<rect x="166.4" y="76.8" class="st0" width="22.4" height="22.4"/>
	<rect x="188.8" y="99.2" class="st0" width="22.4" height="22.4"/>
	<rect x="211.2" y="76.8" class="st0" width="22.4" height="22.4"/>
	<rect x="233.6" y="99.2" class="st0" width="22.4" height="22.4"/>
	<polygon class="st0" points="278.4,99.2 300.8,99.2 323.2,99.2 323.2,76.8 300.8,76.8 300.8,54.4 278.4,54.4 278.4,76.8 256,76.8 
		256,99.2 	"/>
	<rect x="323.2" y="99.2" class="st0" width="22.4" height="22.4"/>
	<rect x="166.4" y="121.6" class="st0" width="22.4" height="22.4"/>
	<polygon class="st0" points="233.6,166.4 233.6,144 233.6,121.6 211.2,121.6 211.2,144 188.8,144 188.8,166.4 211.2,166.4 	"/>
	<rect x="256" y="121.6" class="st0" width="22.4" height="22.4"/>
	<polygon class="st0" points="300.8,144 278.4,144 278.4,166.4 300.8,166.4 323.2,166.4 323.2,144 323.2,121.6 300.8,121.6 	"/>
	<polygon class="st0" points="99.2,188.8 99.2,166.4 76.8,166.4 76.8,188.8 54.4,188.8 54.4,211.2 76.8,211.2 76.8,233.6 
		99.2,233.6 99.2,211.2 	"/>
	<polygon class="st0" points="166.4,188.8 188.8,188.8 188.8,166.4 166.4,166.4 144,166.4 121.6,166.4 121.6,188.8 144,188.8 	"/>
	<polygon class="st0" points="412.8,188.8 412.8,166.4 390.4,166.4 390.4,188.8 390.4,211.2 412.8,211.2 	"/>
	<rect x="435.2" y="166.4" class="st0" width="22.4" height="22.4"/>
	<rect x="54.4" y="233.6" class="st0" width="22.4" height="22.4"/>
	<rect x="121.6" y="211.2" class="st0" width="22.4" height="22.4"/>
	<rect x="166.4" y="211.2" class="st0" width="22.4" height="22.4"/>
	<rect x="323.2" y="233.6" class="st0" width="22.4" height="22.4"/>
	<polygon class="st0" points="368,256 390.4,256 390.4,233.6 390.4,211.2 368,211.2 368,188.8 368,166.4 345.6,166.4 345.6,188.8 
		323.2,188.8 323.2,211.2 345.6,211.2 345.6,233.6 368,233.6 	"/>
	<rect x="412.8" y="233.6" class="st0" width="22.4" height="22.4"/>
	<rect x="435.2" y="211.2" class="st0" width="22.4" height="22.4"/>
	<rect x="54.4" y="278.4" class="st0" width="22.4" height="22.4"/>
	<polygon class="st0" points="144,278.4 121.6,278.4 121.6,256 121.6,233.6 99.2,233.6 99.2,256 99.2,278.4 99.2,300.8 121.6,300.8 
		121.6,323.2 144,323.2 144,300.8 	"/>
	<polygon class="st0" points="144,278.4 166.4,278.4 188.8,278.4 188.8,256 166.4,256 166.4,233.6 144,233.6 144,256 	"/>
	<rect x="323.2" y="278.4" class="st0" width="22.4" height="22.4"/>
	<polygon class="st0" points="368,323.2 345.6,323.2 323.2,323.2 323.2,345.6 345.6,345.6 345.6,368 368,368 368,345.6 	"/>
	<rect x="345.6" y="256" class="st0" width="22.4" height="22.4"/>
	<rect x="412.8" y="278.4" class="st0" width="22.4" height="22.4"/>
	<rect x="435.2" y="256" class="st0" width="22.4" height="22.4"/>
	<rect x="54.4" y="323.2" class="st0" width="22.4" height="22.4"/>
	<rect x="76.8" y="300.8" class="st0" width="22.4" height="22.4"/>
	<rect x="99.2" y="323.2" class="st0" width="22.4" height="22.4"/>
	<rect x="144" y="323.2" class="st0" width="22.4" height="22.4"/>
	<rect x="166.4" y="300.8" class="st0" width="22.4" height="22.4"/>
	<polygon class="st0" points="412.8,300.8 390.4,300.8 390.4,278.4 368,278.4 368,300.8 368,323.2 390.4,323.2 390.4,345.6 
		390.4,368 412.8,368 412.8,345.6 435.2,345.6 435.2,323.2 412.8,323.2 	"/>
	<rect x="435.2" y="300.8" class="st0" width="22.4" height="22.4"/>
	<rect x="166.4" y="345.6" class="st0" width="22.4" height="22.4"/>
	<rect x="188.8" y="368" class="st0" width="22.4" height="22.4"/>
	<polygon class="st0" points="256,368 256,345.6 233.6,345.6 233.6,368 233.6,390.4 256,390.4 	"/>
	<polygon class="st0" points="300.8,345.6 278.4,345.6 278.4,368 300.8,368 323.2,368 323.2,345.6 	"/>
	<polygon class="st0" points="323.2,390.4 323.2,412.8 323.2,435.2 345.6,435.2 345.6,412.8 345.6,390.4 345.6,368 323.2,368 	"/>
	<rect x="368" y="368" class="st0" width="22.4" height="22.4"/>
	<rect x="412.8" y="368" class="st0" width="22.4" height="22.4"/>
	<rect x="435.2" y="345.6" class="st0" width="22.4" height="22.4"/>
	<polygon class="st0" points="188.8,390.4 166.4,390.4 166.4,412.8 166.4,435.2 188.8,435.2 188.8,412.8 	"/>
	<polygon class="st0" points="233.6,412.8 233.6,390.4 211.2,390.4 211.2,412.8 211.2,435.2 188.8,435.2 188.8,457.6 211.2,457.6 
		233.6,457.6 233.6,435.2 256,435.2 256,412.8 	"/>
	<polygon class="st0" points="278.4,412.8 300.8,412.8 300.8,390.4 278.4,390.4 256,390.4 256,412.8 	"/>
	<polygon class="st0" points="278.4,435.2 256,435.2 256,457.6 278.4,457.6 300.8,457.6 323.2,457.6 323.2,435.2 300.8,435.2 	"/>
	<polygon class="st0" points="435.2,435.2 435.2,457.6 457.6,457.6 457.6,435.2 457.6,412.8 457.6,390.4 435.2,390.4 435.2,412.8 	
		"/>
	<rect x="345.6" y="435.2" class="st0" width="22.4" height="22.4"/>
	<polygon class="st0" points="390.4,457.6 412.8,457.6 412.8,435.2 412.8,412.8 390.4,412.8 368,412.8 368,435.2 390.4,435.2 	"/>
</g>
<path class="st1" d="M32,32v112h112V32H32z M121.6,121.6H54.4V54.4h67.2V121.6z"/>
<path class="st1" d="M368,32v112h112V32H368z M457.6,121.6h-67.2V54.4h67.2L457.6,121.6L457.6,121.6z"/>
<path class="st1" d="M32,368v112h112V368H32z M121.6,457.6H54.4v-67.2h67.2V457.6z"/>
<g id="Grupo_572_1_" transform="translate(583 -6689)">
	<path id="Trazado_954_1_" class="st1" d="M-305.5,6884.5c4.6,4.6,4.6,12.3,0,17l0,0l-34,34c-4.6,4.7-4.5,12.3,0.2,17
		c4.6,4.6,12.1,4.6,16.7,0l-8.5,8.5c-9.4,9.4-24.5,9.4-34,0c-9.4-9.4-9.4-24.5,0-34l42.4-42.4
		C-317.8,6879.7-310.1,6879.7-305.5,6884.5L-305.5,6884.5z"/>
	<path id="Trazado_955_1_" class="st1" d="M-285.7,6942.7c4.6,4.6,4.6,12.3,0,17l0,0l-17,17c-4.7,4.6-4.8,12.3-0.2,17
		c4.6,4.7,12.3,4.8,17,0.2c0.1-0.1,0.1-0.1,0.2-0.2l-8.5,8.5c-9.4,9.4-24.5,9.4-34,0c-9.4-9.4-9.4-24.5,0-34l25.5-25.5
		C-297.9,6938-290.4,6938-285.7,6942.7z"/>
</g>
</svg>
