<?xml version="1.0" encoding="utf-8"?>
<!-- Generator: Adobe Illustrator 23.0.0, SVG Export Plug-In . SVG Version: 6.00 Build 0)  -->
<svg version="1.1" id="Capa_1" xmlns="http://www.w3.org/2000/svg" xmlns:xlink="http://www.w3.org/1999/xlink" x="0px" y="0px"
	 viewBox="0 0 512 512" style="enable-background:new 0 0 512 512;" xml:space="preserve">
<style type="text/css">
	.st0{fill:#FFFFFF;}
</style>
<g id="Grupo_707" transform="translate(0 0)">
	<g id="Grupo_655" transform="translate(10.965 0)">
		<path id="Trazado_954" class="st0" d="M298,40.8c11.8,11.8,11.8,30.9,0,42.8l0,0l-85.5,85.5c-11.8,11.8-11.8,31,0,42.8
			s31,11.8,42.8,0l0,0l-21.4,21.4c-23.6,23.6-61.9,23.6-85.5,0s-23.6-61.9,0-85.5l106.9-107C267.1,29.1,286.2,29.1,298,40.8z"/>
		<path id="Trazado_955" class="st0" d="M350.6,178.6c11.8,11.8,11.8,30.9,0,42.8l0,0l-42.8,42.8c-11.8,11.8-11.8,31,0,42.8
			s31,11.8,42.8,0l-21.4,21.4c-23.6,23.6-61.9,23.6-85.5,0s-23.6-61.9,0-85.5l64.1-64.1C319.6,166.8,338.7,166.8,350.6,178.6z"/>
	</g>
	<path id="ic_arrow_upward_24px" class="st0" d="M321.2,367l-10,10l39.4,39.5H134.3v14.1h216.4L311.2,470l10,10l56.5-56.5L321.2,367
		z"/>
</g>
</svg>
